<?xml version="1.0" encoding="utf-8"?>
<!-- Generator: Adobe Illustrator 19.0.0, SVG Export Plug-In . SVG Version: 6.00 Build 0)  -->
<svg version="1.1" id="Capa_1" xmlns="http://www.w3.org/2000/svg" xmlns:xlink="http://www.w3.org/1999/xlink" x="0px" y="0px"
	 viewBox="0 0 606.5 595.3" style="enable-background:new 0 0 606.5 595.3;" xml:space="preserve">
<style type="text/css">
	.st0{fill:#CBCBCB;}
	.st1{fill:#FEFEFE;}
	.st2{fill:#FDFDFD;}
	.st3{fill:#070408;}
</style>
<path id="XMLID_23_" class="st0" d="M524.2,218.7c-11.7-27.6-28.4-52.3-49.6-73.6c-13.8-13.8-29.1-25.7-45.7-35.5
	c3.7-6.8,6.6-11.4,8.3-13.8c6.6-9.3,8.3-20.8,4.8-31.4c-3.4-10.2-11.3-18.6-21.8-23c-23.8-10.1-42.3-15.5-71.7-15.5
	c-4.7,0-9.5,0.1-14.2,0.4c-8.4,0.5-15.1,1.4-19.2,2c-16.5,2.6-29.4,14-32.9,29.2c-1.6,7-3.1,14.4-4.5,22.1
	c-45.2,6.2-86.1,24.9-119.4,54.5c-2.1-11.2-4.2-22.3-6.2-33.2c-1.2-6.5-5.3-12-11.4-15.1c-6.3-3.2-13.9-3.2-20.2,0
	c-17.5,8.8-60.7,33.5-84,73.5c-8.4,14.3-10.2,30.8-5.1,46.5c10.7,33.2,36.7,106.2,63.6,176c23.8,61.8,56.5,142,76.7,172.8l0.6,0.9
	l0.8,0.8c1.8,1.8,2.8,2.8,18.2,5.8c10.6,2.1,20.1,3.1,28.3,3.1c21.9,0,34-6.9,36.8-8.8l3.6-2.1l1.1-4.3c0.3-1.1,0.3-1.4-0.1-15.4
	c13.6,3.1,27.5,5,41.6,5.5c3.6,1.7,7.4,2.8,11.5,3.3c3.3,0.4,6.6,0.5,10,0.3c8-0.5,16.5-2.7,25.2-6.5c17.8-3,35.3-8,52-15.1
	c27.6-11.7,52.3-28.4,73.6-49.6s38-46,49.6-73.6c12.1-28.6,18.2-58.9,18.2-90.1C542.4,277.6,536.3,247.3,524.2,218.7z"/>
<g id="XMLID_1_">
	<path id="XMLID_205_" class="st0" d="M181.6,178.9c27.4-27.4,61.9-45.2,99.4-51.7c0.9-7.2,1.8-14.1,2.8-20.8
		c-51.9,6.6-96.8,32-128,69.5c1.9,9.1,3.8,18.1,5.7,26.8C167.5,194.3,174.2,186.4,181.6,178.9z"/>
	<path id="XMLID_206_" class="st0" d="M450.4,182.1c4.1,4.1,7.5,8.3,10.6,12.6c2.1,2.6,4.1,5.4,5.9,7.9c6.7,9.4,9.6,20.1,8.7,31.7
		c10.8,23.1,16.8,48.8,16.8,75.9c0,8.2-0.6,16.3-1.6,24.2c1.2,2.4,2.2,4.7,3.1,6.9c5.4,12.5,7.7,26.1,7,40.4c0,0.5-0.1,1-0.1,1.5
		c9.1-23.1,14-48.2,14-74.5c0-77.8-43.6-145.5-107.7-179.9c-2.5,5.3-5.1,11-7.6,16.9C418.5,155.3,435.9,167.6,450.4,182.1z"/>
	<path id="XMLID_207_" class="st0" d="M247.8,484.5l1,18.4c14,4.7,28.7,7.9,44,9.3c-1.9-4.5-4.5-10.7-7.6-18
		C272.3,492.2,259.8,489,247.8,484.5z"/>
	<path id="XMLID_216_" class="st1" d="M212.1,199.5c18.4-18.4,42.9-29.7,65-36.1c0.7-7.8,1.5-15.4,2.3-22.7
		c-33.4,6.5-64.1,22.8-88.7,47.4c-9.8,9.8-18.3,20.6-25.4,32.2c2.4,10.9,4.8,21.6,7.2,31.9C182.2,231.8,197.3,214.3,212.1,199.5z"/>
	<path id="XMLID_217_" class="st1" d="M244.5,422.1l2.6,48.2c10.4,4.3,21.1,7.5,32.2,9.7c-6.3-15.2-13.8-33.1-21.3-51
		C253.4,426.9,248.9,424.6,244.5,422.1z"/>
	<path id="XMLID_46_" class="st1" d="M475.6,234.4c-0.1,1.1-0.2,2.3-0.4,3.4c-1.7,11.8-7.3,21.5-15.5,28.1
		c-7.2,5.8-16.5,9.2-26.9,9.4c-0.2,0-0.5,0-0.7,0c-0.8,0-1.7,0-2.5-0.1c7.4,6.1,14.9,11.7,25.6,19.5c3.7,2.7,7.2,5.6,10.6,8.4
		c0.3,0.2,0.5,0.4,0.8,0.7c1,0.9,2.1,1.7,3.1,2.6c10.1,8.3,16.6,18.7,21.1,28.1c1.1-7.9,1.6-16,1.6-24.2
		C492.4,283.2,486.4,257.5,475.6,234.4z"/>
	<path id="XMLID_60_" class="st1" d="M380.6,479.1c0.6,5.3,1,11.5-0.4,16.8c9.3-2.2,32.4-9.7,58.1-28.5c0.6-0.5,1.2-0.9,1.9-1.4
		c3.2-2.4,6.3-4.8,9.1-7.1c2.2-2,4.4-4.1,6.5-6.3c-0.7,0.8-1.3,1.6-2,2.4c9.7-8.7,17.3-17.5,24.4-28.2c1.9-2.8,3.6-5.7,5.1-8.6
		c6-11.4,9.5-23.6,10.1-36.7c0.3-7-0.1-13.9-1.4-20.6c-0.1-0.4-0.2-0.9-0.3-1.3c-0.8-3.8-1.9-7.6-3.2-11.3c-0.5-1.3-1-2.6-1.5-3.8
		c-5.1-11.8-11.2-22.8-21.1-31.3c-0.3-0.3-0.6-0.5-1-0.8c-4.7-3.8-9.3-7.8-14.2-11.3c-19.4-14-28.4-21.3-46.1-37.4
		c-10.1-9.2-19.2-19.5-25.7-31.7c-3.9-7.3-6.9-15-6.8-23.5c0.1-8.4,6.6-14.8,14.5-14.8c1.1,0,2.2,0.1,3.3,0.4
		c9.4,2.1,17,7.2,22.6,15c6.6,9.1,6.4,17.9-0.3,26.9c-2.2,2.9-4.9,5.3-7.7,7.7c-3.1,2.6-3.5,5.2-1.5,8.7c0.7,1.3,1.6,2.5,2.5,3.6
		c7.1,8,16.2,11.8,26.6,11.8c0.2,0,0.4,0,0.6,0c9.8-0.1,18.2-3.7,24.4-9.7c5.5-5.3,9.3-12.7,10.5-21.3c0.9-6,0.6-11.7-0.9-17.1
		c-0.4-1.4-0.9-2.9-1.5-4.3c-1.2-2.8-2.7-5.5-4.5-8.2c-3.4-4.8-10.3-14.8-15.5-19.6c-0.5-0.4-1-0.8-1.6-1.4c-0.1,0-0.1-0.1-0.2-0.1
		c-1.7-1.5-4-3.5-6.6-5.6c-1.8-1.4-3.7-2.9-5.7-4.2c-10.4-8.6-22.2-15.8-35.1-21.7c-2.3,5.7-4.5,11.5-6.6,17.3
		c3.3,1.6,6.5,3.4,9.6,5.3c-0.1,0.1-0.1,0.2-0.2,0.2c-3,0-6,0.3-8.9,0.8c-6.5,1-12.6,2.1-18.2,5.1c-11.5,6-21.1,13.6-28.6,25
		c-3.1,4.6-5.6,12.2-7.6,16.8c-1.5,4.2-2.7,8.6-3.5,13.2c-2.8,15.5-1.1,32.4,5,48.8c3.5,9.6,8.4,19,14.7,28.2l0.1-0.3
		c0,0,32.4,26.5,44.2,54.2c3.5,8.2,5.2,16.5,3.7,24.3c-1.1,5.7-4,11.1-9.1,15.9c-3.7,3.4-8.6,5.6-14.7,8.3c-0.2,0.1,0.4,5.4,0.4,5.8
		c0.1,1.7,0.2,3.4,0.4,5.1c0.2,3.3-0.5,6.6-0.1,9.9c0.7,6.9,1.3,13.8,2,20.7c0.6,6.1,1.2,12.3,1.9,18.4
		C380.4,478.1,380.5,478.6,380.6,479.1z"/>
	<path id="XMLID_40_" class="st0" d="M473.7,375.4c-0.4-5.3-1.4-10.6-3-15.7c-5.6-17.5-18.8-31.3-33.3-42
		c-8.7-6.5-17.5-12.9-26.3-19.2c-15-10.9-30.4-21.4-40.7-37.3c-8.9-13.7-13.8-30.4-10.9-46.7c0,0,0,0,0,0c0.2-1.1-1.2-1.7-1.8-0.8
		c-1.1,1.4-1.9,2.8-2.8,4.3c-13.8,22.8-11.4,54.2,2.5,76.4c3.7,5.9,8.1,11.2,12.6,16.4c17.6,20.6,40.2,39.4,46.9,66.8
		c1.1,4.4,1.8,8.9,1.4,13.4c-0.7,7.4-4.5,14.2-9.5,19.8c-5.2,5.8-11.9,11.3-18.5,15.6c-6.1,3.9-13.3,5.8-13.3,5.8
		c-2.1,1.2-0.2,1.8-0.9,4.2c-0.9,2.7,1.2,5.4,1.5,8.2c0.7,7.8,1.5,15.5,2.3,23.3c0.4,3.4-4.1,9.2,0.7,9.2c0.5,0,5.6-1.1,6.1-1.3
		c8.7-2,16.5-5.7,24.5-9.5c2.5-1.2,4.9-2.3,7.3-3.6c19.1-10.2,34.7-26.9,45.2-45.7c3.1-5.6,5.8-11.6,7.6-17.8
		C473.4,391.4,474.2,383.3,473.7,375.4z"/>
	<path id="XMLID_51_" class="st2" d="M341.6,197.3c7.9-9.6,18-17.4,29.4-22.5c1.6-0.7,4.4-1.8,6.9-2.7c1-0.4,1.9-0.7,2.7-1
		c0.3-0.9,0.6-1.8,0.9-2.6c2.1-5.8,4.3-11.5,6.5-17.1c0.4-1.1,0.9-2.2,1.3-3.2c0.8-2,1.6-3.9,2.4-5.8c2.6-6,5.2-11.7,7.8-17.2
		c1.3-2.6,2.5-5.2,3.7-7.7c1.3-2.6,2.6-5.1,3.8-7.5c6.1-11.7,11.3-20.6,14.5-25.1c2.9-4.2,3.7-9.2,2.2-13.9
		c-1.6-4.8-5.5-8.9-10.8-11.1c-22.4-9.5-37.7-14-64-14c-4.3,0-8.7,0.1-13,0.4c-7.6,0.5-13.7,1.2-17.4,1.8c-8.5,1.3-15,6.8-16.7,14.1
		c-1.9,8.2-3.6,17.1-5.3,26.5c-0.5,2.8-1,5.7-1.4,8.6c-0.5,2.8-0.9,5.7-1.3,8.6c-1,6.5-1.9,13.3-2.8,20.4c-0.3,2.2-0.5,4.4-0.8,6.6
		c-0.3,2.2-0.5,4.4-0.8,6.6c-0.8,7-1.5,14.3-2.3,21.8c0,0.2,0,0.3,0,0.5c-1.3,13.7-2.5,28.2-3.5,43.6c-1.6,22.7,0.1,160.2,0.1,160.2
		l-35.9-101.1c-3.7-5.1-10-8.2-17-8.2c-0.5,0-1,0-1.4,0c-5.6,0.3-10.9,2.7-14.4,6.4c-3.2,3.4-4.7,7.7-4.2,12.2l0,0.3l-0.4,153.9
		c-0.2-0.5-5.4-17.1-13.5-46.1c-7.9-28.1-18.5-67.8-29.8-115.5c-2.7-11.2-5.4-22.9-8.1-34.9c-0.7-3.2-1.4-6.4-2.1-9.6
		c-0.7-3.1-1.4-6.2-2.1-9.3c-2-9.1-4-18.5-6-28c-0.8-3.6-1.5-7.3-2.3-11c-0.7-3.6-1.5-7.1-2.2-10.7c-3.9-19.2-7.6-39-11.3-59.4
		c-0.1-0.5-0.6-0.8-0.9-1c-0.6-0.3-1.6-0.5-2.6,0c-15.9,8-55.2,30.4-75.9,65.9c-5.5,9.4-6.7,20.2-3.4,30.5
		c7.6,23.7,24.5,71.9,44.3,125.4c6.6,17.7,13.4,36,20.4,54.1c1.5,3.9,3,7.7,4.5,11.6c7.2,18.6,14.5,36.9,21.7,54.1
		c17.3,41.9,33.5,77.5,45.2,96c12.8,3.1,42.3,8,55.6,1.5c-3.5-65.2-6.7-130.3-5-195.6c-0.1,4.1,4.4,11.7,5.8,15.6
		c2.6,7.1,5.2,14.2,7.8,21.3c5.3,14.3,10.5,28.6,16.4,42.6c1.1,2.6,2.2,5.3,3.3,7.9c7.1,17.1,14.1,33.9,19.9,47.7
		c1,2.4,1.9,4.6,2.9,6.8c1,2.4,1.9,4.6,2.8,6.8c3.2,7.7,5.8,13.7,7.3,17.4c0.6,1.4,1.1,2.5,1.4,3.2c0.9,2.2,2.5,4,4.6,5.4
		c2,1.4,4.5,2.3,7.1,2.6c2.1,0.2,4.3,0.3,6.5,0.2c5.7-0.3,11.9-2,18.4-4.9c6.6-3,13.7-7.2,21-12.8c0.6-0.4,1.2-0.9,1.7-1.3
		c1-0.8,1.9-1.6,2.7-2.4c4.4-4.6,6.8-10.5,6.7-16.5c0-0.7-0.1-1.3-0.1-2c-0.2-1.6-0.4-3.1-0.5-4.6c-0.3-2.2-0.5-4.4-0.8-6.6
		c-3.3-29.5-5.6-59.2-6.2-88.9c-0.2-8-0.2-16.1-0.2-24l-0.3-14.8c-10.5-10.6-19.2-21.7-26-33.2c0,0-15.8-28.6-15.8-61.9
		C323.5,223.5,341.6,197.3,341.6,197.3z"/>
</g>
<path id="XMLID_8_" class="st0" d="M404.3,75.1c-14.3-9.1-33.1-13-49.4-14.2c-8.5-0.6-37.7-1.7-40,9.5
	C304.1,123.3,298.7,177.1,296,231c-2.6,53.1-3.8,106.1,0.9,159.1c0.8,9.6,1.8,19.1,3,28.5c0.2,1.8-2.3,2.5-3,0.8l-61.3-148.2
	c-1.5-3.6-5.6-5.3-9.1-3.8c-2.8,1.2-6.4,4.9-6.3,7.7c-0.1,0.3-0.2,0.6-0.2,1l3,220.5c0,2.5-3.5,3.1-4.3,0.7
	c-10.4-32.4-35.4-110.5-38.1-120.1c-9.1-32-17.8-63.9-25.3-96.3c-5.9-25.7-11.6-51.5-17.4-77.2c-0.9-4.1-1.8-8-2.7-11.8
	c-0.9-3.9-1.7-7.7-2.5-11.4c-4.2-19.3-7.4-34.1-9.2-42.5c-0.2-1.1-0.8-2.1-1.7-2.9c-1.7-1.4-4.1-1.5-5.9-0.3
	c-11.6,7.7-20.6,15-27.6,21.7c-20.1,19.1-24.1,33.1-24.8,36.4c-0.1,0.7-0.1,1.3,0,2c4.5,22.8,16,57.8,30.3,96.7
	c2.6,7.1,5.3,14.3,8.1,21.6c3.7,9.8,7.5,19.6,11.4,29.6c11.5,29.3,23.6,58.9,34.7,85.5c4.2,10,8.2,19.6,12.1,28.6
	c3.1,7.3,6,14.1,8.8,20.6c10.7,25,18.7,43.2,21.5,49.4c0.5,1.2,1.6,2.2,2.8,2.6c5.7,2.1,12.1,3.4,18,4.2c6,0.8,11.5,1.1,15.1,1.1
	c0.6,0,1.2,0,1.7,0c1.6,0,3.1-0.7,4.1-2c0.6-0.8,0.9-1.8,0.9-2.7c0.1-0.3,0.2-0.6,0.2-0.9l-5-221.6c0-2.2,3-2.9,3.9-0.8l84.1,195.9
	c0.8,1.9,2.3,3.2,4.1,3.9c0,0,0,0,0.1,0c0,0,0,0,0.1,0c0.7,0.2,1.5,0.4,2.3,0.4c0.9,0,1.8-0.2,2.7-0.5c0.4-0.2,0.8-0.4,1.2-0.6
	c2.8-0.9,5.6-2.2,7-2.8c8.7-3.7,23.3-12.6,22.1-23.6c0-0.1,0-0.2,0-0.2c-5.4-50-7.2-101.8-5.6-152.1c0,0-6-8.3-8.5-12.5
	c-3.6-6-6.8-11.9-9.5-18.4c-5.2-12.9-8.4-26.6-8.6-40.5c-0.5-29.3,13.2-58.6,38-74.9c3-2,8.6-3.6,10.8-6.3c2.5-3.2,3.1-11,4.2-15
	c7.5-25.3,16.9-51.5,31.1-74c0.4-0.6,0.7-1.2,0.8-1.8C409.3,80.1,407.3,77,404.3,75.1z"/>
<path id="XMLID_6_" class="st3" d="M514.5,222.8c-11.1-26.3-27.1-50-47.4-70.3c-15.6-15.6-33.1-28.6-52.3-38.8
	c5.8-11.3,10.8-19.8,13.8-24c4.6-6.6,5.9-14.6,3.4-22.1c-2.4-7.3-8.2-13.4-15.9-16.6c-23.1-9.8-39.8-14.7-67.6-14.7
	c-4.5,0-9.1,0.1-13.6,0.4c-8,0.5-14.3,1.3-18.3,1.9c-12.2,1.9-21.8,10.2-24.2,21.1c-2.1,9.1-4,18.8-5.8,29.3
	c-49.7,5.2-95.3,26.5-130.3,61.2c-1.6,1.6-3.2,3.2-4.7,4.8c-3.4-17-6.7-34.5-9.9-52.4c-0.6-3.2-2.7-6-5.8-7.6
	c-3.4-1.7-7.4-1.7-10.8,0c-16.6,8.4-57.7,31.9-79.7,69.4c-6.8,11.7-8.3,25.2-4.2,37.9C61.1,264.1,144,493.4,180.3,548.8l0,0
	c0,0,21,5.9,39,5.9c21.2,0,31.2-7.1,31.3-7.2c0,0-0.9-26.6-0.9-26.6c0,0,0,0,0,0c17.9,5.4,36.4,8.4,55.3,8.9
	c2.9,1.7,6.3,2.9,9.9,3.3c2.6,0.3,5.4,0.4,8.2,0.2c7.2-0.4,14.8-2.5,22.7-6.2c17.5-2.8,34.6-7.7,51-14.6
	c26.3-11.1,50-27.1,70.3-47.4c20.3-20.3,36.2-43.9,47.4-70.3c11.5-27.3,17.4-56.2,17.4-86.1C531.9,279,526,250.1,514.5,222.8z
	 M277.2,163.4c-22.1,6.4-46.6,17.8-65,36.1c-14.9,14.8-29.9,32.3-39.6,52.7c-2.4-10.3-4.8-20.9-7.2-31.9
	c7.1-11.6,15.6-22.4,25.4-32.2c24.6-24.6,55.3-40.9,88.7-47.4C278.7,147.9,277.9,155.5,277.2,163.4
	C277.2,163.4,277.2,163.3,277.2,163.4L277.2,163.4C277.2,163.4,277.2,163.4,277.2,163.4z M283.8,106.4c-1,6.7-1.9,13.6-2.8,20.8
	c-37.5,6.5-72,24.3-99.4,51.7c-7.4,7.4-14.2,15.4-20.1,23.8c-1.9-8.8-3.8-17.7-5.7-26.8C187,138.4,232,113,283.8,106.4z
	 M244.5,422.1c4.4,2.5,8.9,4.8,13.5,6.9c7.5,17.9,15,35.8,21.3,51c-11.1-2.2-21.9-5.4-32.2-9.7L244.5,422.1z M248.8,502.8l-1-18.4
	c12,4.5,24.5,7.7,37.4,9.7c3.1,7.3,5.7,13.5,7.6,18C277.5,510.7,262.8,507.6,248.8,502.8z M366.3,502.8c-0.8,0.9-1.7,1.7-2.7,2.4
	c-0.6,0.5-1.2,0.9-1.7,1.3c-7.3,5.6-14.3,9.9-21,12.8c-6.5,2.9-12.6,4.5-18.4,4.9c-2.2,0.1-4.4,0.1-6.5-0.2
	c-2.7-0.3-5.1-1.2-7.1-2.6c-2-1.4-3.6-3.2-4.6-5.4c-0.3-0.7-0.8-1.8-1.4-3.2c-1.6-3.7-4.1-9.8-7.3-17.4c-0.9-2.1-1.8-4.4-2.8-6.8
	c-0.9-2.2-1.9-4.5-2.9-6.8c-4.8-11.4-38.8-104.6-50.9-137.6c-2.3-6.4-4.2-6-4.2,0.7c0,63.8,3.5,134.5,6.9,197.5
	c0,0-18.6,10.1-54.9-1.5c-0.4-0.3-0.8-0.6-1.2-0.9c-11.7-18.6-27.7-53.9-44.8-95.2c-7.1-17.2-14.4-35.5-21.7-54.1
	c-0.4-1-0.9-2-1.3-3.1c-1.1-2.8-2.2-5.6-3.2-8.5c-7-18.1-13.9-36.4-20.4-54.1C74.4,271.6,57.6,223.3,50,199.7
	c-3.3-10.2-2.1-21.1,3.4-30.5c20.7-35.4,60-57.9,75.9-65.9c0.9-0.5,1.9-0.3,2.6,0c0.2,0.1,0.8,0.4,0.9,1
	c3.6,20.3,7.4,40.2,11.3,59.4c0.7,3.6,1.4,7.2,2.2,10.7c0.8,3.7,1.5,7.4,2.3,11c2,9.5,4,18.9,6,28c0.7,3.1,1.4,6.2,2.1,9.3
	c0.7,3.2,1.4,6.4,2.1,9.6c2.7,12.1,5.4,23.7,8.1,34.9c11.3,47.7,21.9,87.4,29.8,115.5c8.1,28.9,13.3,45.6,13.5,46.1l0.3,1
	c0.7,2.4,4.3,1.9,4.3-0.7c-0.9-39.1-3.2-136.7-4.1-152.4c0-0.6-0.1-1.2-0.1-1.8l0-0.3c-0.5-4.4,1-8.7,4.2-12.2
	c3.5-3.8,8.7-6.1,14.4-6.4c0.5,0,0.9,0,1.4,0c7,0,12,5.4,14.1,11.4l38.8,97.8c0.3,1.1,1.9,0.8,1.9-0.3c0.1-27.8-3.5-140.1-2.1-159.9
	c1-15.2,2.2-29.6,3.5-43.1l0.2-1.7c0.7-7.3,1.4-14.3,2.2-21.1c0.3-2.2,0.5-4.4,0.8-6.6c0.3-2.2,0.5-4.4,0.8-6.6
	c0.9-7.1,1.8-13.9,2.8-20.4c0.4-2.9,0.9-5.8,1.3-8.6c0.5-2.9,1-5.8,1.4-8.6c1.6-9.4,3.4-18.2,5.3-26.5c1.6-7.2,8.2-12.8,16.7-14.1
	c3.7-0.6,9.8-1.4,17.4-1.8c4.3-0.3,8.7-0.4,13-0.4c26.3,0,41.6,4.5,64,14c5.3,2.2,9.2,6.3,10.8,11.1c1.5,4.7,0.8,9.7-2.2,13.9
	c-3.2,4.5-8.4,13.4-14.5,25.1c-1.2,2.4-2.5,4.9-3.8,7.5c-1.2,2.5-2.5,5-3.7,7.7c-2.6,5.4-5.2,11.2-7.8,17.2
	c-0.8,1.9-1.6,3.8-2.4,5.8c-0.4,1.1-0.9,2.2-1.3,3.2c-2.3,5.6-4.5,11.3-6.5,17.1c-0.2,0.5-0.8,2.1-1,2.6l-1,0.4
	c-0.5,0.2-1.1,0.4-1.7,0.6c-2.5,0.9-5.3,2-6.9,2.7c-11.3,5.2-21.4,12.9-29.4,22.5c-5.1,6.3-9.3,13.5-12.5,21.4
	c-0.5,1.1-0.9,2.3-1.3,3.5c-6.2,17.4-7.1,37.3-2.5,56.7c1,3.9,2.2,7.8,3.6,11.6c2.7,7.4,6.2,14.8,10.5,21.9
	c6.7,11.2,15.1,22.1,25.4,32.6c0.2,0.5,0.4,1,0.6,1.5l0.3,14c-0.1,7.9,0,16,0.2,24c0.2,10.5,0.7,21.1,1.3,32.1
	c0.4,6.2,0.8,12.4,1.3,18.8c0.1,1.8,0.3,3.6,0.4,5.4c0.9,10.6,1.9,21.5,3.2,32.7c0.2,2.2,0.5,4.4,0.8,6.6c0.2,1.5,0.4,3.1,0.5,4.6
	c0.1,0.7,0.1,1.3,0.1,2C373.2,492.3,370.8,498.2,366.3,502.8z M493.3,381.5c-0.6,13.1-4.1,25.4-10.1,36.7c-1.5,2.9-3.2,5.8-5.1,8.6
	c-7,10.6-14.6,19.5-24.4,28.2c-1.5,1.3-3,2.6-4.5,3.9c-2.8,2.4-5.9,4.7-9.1,7.1c-0.6,0.5-1.2,0.9-1.9,1.4
	c-25.6,18.7-47.8,25.3-57.1,27.5c1-3.8,1.3-7.7,0.8-11.7c0-0.1,0-0.2,0-0.2c-2.5-20.8-4.5-41.7-5.9-62.6c0-0.7-0.2-2.8-0.2-2.8
	s1.9-0.4,2.7-0.7c8.1-2.8,14.9-8.9,18.6-16.6c4.9-10.3,3.1-21.1-1.2-31.2c-11.8-27.6-31.3-40.7-43.1-53.5c-7.5-8.2-12.4-19-16-28.6
	c-6-16.4-7.7-33.3-5-48.8c0.8-4.6,2-9,3.5-13.2c4.5-12.4,11.9-23.1,21.7-31.4c5.3-4.2,10.2-7.4,14.6-9.4c5.6-2.9,11.7-5,18.2-6.1
	c2.1-0.3,5.1-0.3,7.9-0.3c1,0,1.3-1.3,0.4-1.7c-3-1.5-6.5-3-8.9-4.3c2.1-5.9,4.3-11.7,6.6-17.3c12.9,5.9,24.7,13.1,35.1,21.7
	c2,1.4,3.9,2.8,5.7,4.2c2.6,2.1,4.9,4.1,6.6,5.6c0.1,0,0.1,0.1,0.2,0.1c0.5,0.4,1.1,0.8,1.6,1.4c5.2,4.8,12,14.7,15.5,19.6
	c1.9,2.6,3.4,5.4,4.5,8.2c0.6,1.4,1.1,2.8,1.5,4.3c1.5,5.4,1.8,11.2,0.9,17.1c-1.2,8.6-5,15.9-10.5,21.3c-6.2,6-14.6,9.5-24.4,9.7
	c-0.2,0-0.4,0-0.6,0c-10.4,0-19.5-3.9-26.6-11.8c-1-1.1-1.8-2.4-2.5-3.6c-2-3.5-1.5-6.1,1.5-8.7c2.8-2.4,5.5-4.8,7.7-7.7
	c6.8-9,6.9-17.8,0.3-26.9c-5.6-7.8-13.2-12.9-22.6-15c-1.1-0.2-2.2-0.4-3.3-0.4c-7.9,0-14.5,6.4-14.5,14.8
	c-0.1,8.5,2.9,16.2,6.8,23.5c6.5,12.2,15.6,22.4,25.7,31.7c17.7,16.1,26.8,23.4,46.1,37.4c4.9,3.6,9.5,7.5,14.2,11.3
	c0.3,0.3,0.7,0.5,1,0.8c9.9,8.5,16,19.5,21.1,31.3c0.5,1.3,1,2.6,1.5,3.8c1.4,3.7,2.4,7.5,3.2,11.3l0.5,0.6l-0.1,0.5
	c0,0.1,0,0.1-0.1,0.2C493.2,367.6,493.6,374.5,493.3,381.5z M500.9,383.4c0-0.5,0.1-1,0.1-1.5c0.7-14.3-1.7-27.9-7-40.4
	c-0.9-2.2-2-4.5-3.1-6.9c-4.6-9.5-11.2-20.1-21.5-28.5c-0.7-0.6-1.4-1.1-2.1-1.7c-0.4-0.4-0.9-0.8-1.4-1.2
	c-3.4-2.8-6.9-5.7-10.6-8.4c-10.7-7.8-18.2-13.4-25.6-19.5c0.8,0,1.6,0.1,2.5,0.1c0.2,0,0.5,0,0.7,0c10.4-0.2,19.7-3.5,26.9-9.4
	c8.2-6.6,13.8-16.4,15.5-28.1c0.2-1.1,0.3-2.3,0.4-3.4c1-11.6-1.9-22.3-8.7-31.7c-1.8-2.6-3.8-5.3-5.9-7.9
	c-3.1-4.3-6.5-8.5-10.6-12.6c-14.5-14.5-31.9-26.8-50.8-36.3c2.5-5.9,5.1-11.6,7.6-16.9c64.1,34.4,107.7,102.1,107.7,179.9
	C514.9,335.2,510,360.3,500.9,383.4z"/>
<path id="XMLID_2_" class="st0" d="M424.3,191.2c-0.8-1.8,1.4-3.5,2.9-2.2c9.5,7.6,26.5,23.7,28.5,41.8c2.6,23-21.3,30.9-34.3,23.3
	c-1.9-1.1-2.5-3.7-1.1-5.4C425.8,241.7,437.6,221.7,424.3,191.2z"/>
<path id="XMLID_13_" class="st2" d="M341.1,197"/>
<path id="XMLID_14_" class="st2" d="M341.1,197"/>
<path id="XMLID_15_" class="st2" d="M338.9,312.1"/>
<g id="XMLID_49_">
	<path id="XMLID_62_" class="st0" d="M783.3,178.9c27.4-27.4,61.9-45.2,99.4-51.7c0.9-7.2,1.8-14.1,2.8-20.8
		c-51.9,6.6-96.8,32-128,69.5c1.9,9.1,3.8,18.1,5.7,26.8C769.2,194.3,775.9,186.4,783.3,178.9z"/>
	<path id="XMLID_61_" class="st0" d="M1052.1,182.1c4.1,4.1,7.5,8.3,10.6,12.6c2.1,2.6,4.1,5.4,5.9,7.9c6.7,9.4,9.6,20.1,8.7,31.7
		c10.8,23.1,16.8,48.8,16.8,75.9c0,8.2-0.6,16.3-1.6,24.2c1.2,2.4,2.2,4.7,3.1,6.9c5.4,12.5,7.7,26.1,7,40.4c0,0.5-0.1,1-0.1,1.5
		c9.1-23.1,14-48.2,14-74.5c0-77.8-43.6-145.5-107.7-179.9c-2.5,5.3-5.1,11-7.6,16.9C1020.2,155.3,1037.6,167.6,1052.1,182.1z"/>
	<path id="XMLID_59_" class="st0" d="M849.5,484.5l1,18.4c14,4.7,28.7,7.9,44,9.3c-1.9-4.5-4.5-10.7-7.6-18
		C874,492.2,861.5,489,849.5,484.5z"/>
	<path id="XMLID_58_" class="st1" d="M813.8,199.5c18.4-18.4,42.9-29.7,65-36.1c0.7-7.8,1.5-15.4,2.3-22.7
		c-33.4,6.5-64.1,22.8-88.7,47.4c-9.8,9.8-18.3,20.6-25.4,32.2c2.4,10.9,4.8,21.6,7.2,31.9C783.9,231.8,799,214.3,813.8,199.5z"/>
	<path id="XMLID_57_" class="st1" d="M846.2,422.1l2.6,48.2c10.4,4.3,21.1,7.5,32.2,9.7c-6.3-15.2-13.8-33.1-21.3-51
		C855.1,426.9,850.6,424.6,846.2,422.1z"/>
	<path id="XMLID_56_" class="st1" d="M1077.3,234.4c-0.1,1.1-0.2,2.3-0.4,3.4c-1.7,11.8-7.3,21.5-15.5,28.1
		c-7.2,5.8-16.5,9.2-26.9,9.4c-0.2,0-0.5,0-0.7,0c-0.8,0-1.7,0-2.5-0.1c7.4,6.1,14.9,11.7,25.6,19.5c3.7,2.7,7.2,5.6,10.6,8.4
		c0.3,0.2,0.5,0.4,0.8,0.7c1,0.9,2.1,1.7,3.1,2.6c10.1,8.3,16.6,18.7,21.1,28.1c1.1-7.9,1.6-16,1.6-24.2
		C1094.1,283.2,1088.1,257.5,1077.3,234.4z"/>
	<path id="XMLID_54_" class="st1" d="M982.2,479.1c0.6,5.3,1,11.5-0.4,16.8c9.3-2.2,32.4-9.7,58.1-28.5c0.6-0.5,1.2-0.9,1.9-1.4
		c3.2-2.4,6.3-4.8,9.1-7.1c2.2-2,4.4-4.1,6.5-6.3c-0.7,0.8-1.3,1.6-2,2.4c9.7-8.7,17.3-17.5,24.4-28.2c1.9-2.8,3.6-5.7,5.1-8.6
		c6-11.4,9.5-23.6,10.1-36.7c0.3-7-0.1-13.9-1.4-20.6c-0.1-0.4-0.2-0.9-0.3-1.3c-0.8-3.8-1.9-7.6-3.2-11.3c-0.5-1.3-1-2.6-1.5-3.8
		c-5.1-11.8-11.2-22.8-21.1-31.3c-0.3-0.3-0.6-0.5-1-0.8c-4.7-3.8-9.3-7.8-14.2-11.3c-19.4-14-28.4-21.3-46.1-37.4
		c-10.1-9.2-19.2-19.5-25.7-31.7c-3.9-7.3-6.9-15-6.8-23.5c0.1-8.4,6.6-14.8,14.5-14.8c1.1,0,2.2,0.1,3.3,0.4
		c9.4,2.1,17,7.2,22.6,15c6.6,9.1,6.4,17.9-0.3,26.9c-2.2,2.9-4.9,5.3-7.7,7.7c-3.1,2.6-3.5,5.2-1.5,8.7c0.7,1.3,1.6,2.5,2.5,3.6
		c7.1,8,16.2,11.8,26.6,11.8c0.2,0,0.4,0,0.6,0c9.8-0.1,18.2-3.7,24.4-9.7c5.5-5.3,9.3-12.7,10.5-21.3c0.9-6,0.6-11.7-0.9-17.1
		c-0.4-1.4-0.9-2.9-1.5-4.3c-1.2-2.8-2.7-5.5-4.5-8.2c-3.4-4.8-10.3-14.8-15.5-19.6c-0.5-0.4-1-0.8-1.6-1.4c-0.1,0-0.1-0.1-0.2-0.1
		c-1.7-1.5-4-3.5-6.6-5.6c-1.8-1.4-3.7-2.9-5.7-4.2c-10.4-8.6-22.2-15.8-35.1-21.7c-2.3,5.7-4.5,11.5-6.6,17.3
		c3.3,1.6,6.5,3.4,9.6,5.3c-0.1,0.1-0.1,0.2-0.2,0.2c-3,0-6,0.3-8.9,0.8c-6.5,1-12.6,2.1-18.2,5.1c-11.5,6-21.1,13.6-28.6,25
		c-3.1,4.6-5.6,12.2-7.6,16.8c-1.5,4.2-2.7,8.6-3.5,13.2c-2.8,15.5-1.1,32.4,5,48.8c3.5,9.6,8.4,19,14.7,28.2l0.1-0.3
		c0,0,32.4,26.5,44.2,54.2c3.5,8.2,5.2,16.5,3.7,24.3c-1.1,5.7-4,11.1-9.1,15.9c-3.7,3.4-8.6,5.6-14.7,8.3c-0.2,0.1,0.4,5.4,0.4,5.8
		c0.1,1.7,0.2,3.4,0.4,5.1c0.2,3.3-0.5,6.6-0.1,9.9c0.7,6.9,1.3,13.8,2,20.7c0.6,6.1,1.2,12.3,1.9,18.4
		C982.1,478.1,982.2,478.6,982.2,479.1z"/>
	<path id="XMLID_53_" class="st0" d="M1075.4,375.4c-0.4-5.3-1.4-10.6-3-15.7c-5.6-17.5-18.8-31.3-33.3-42
		c-8.7-6.5-17.5-12.9-26.3-19.2c-15-10.9-30.4-21.4-40.7-37.3c-8.9-13.7-13.8-30.4-10.9-46.7c0,0,0,0,0,0c0.2-1.1-1.2-1.7-1.8-0.8
		c-1.1,1.4-1.9,2.8-2.8,4.3c-13.8,22.8-11.4,54.2,2.5,76.4c3.7,5.9,8.1,11.2,12.6,16.4c17.6,20.6,40.2,39.4,46.9,66.8
		c1.1,4.4,1.8,8.9,1.4,13.4c-0.7,7.4-4.5,14.2-9.5,19.8c-5.2,5.8-11.9,11.3-18.5,15.6c-6.1,3.9-13.3,5.8-13.3,5.8
		c-2.1,1.2-0.2,1.8-0.9,4.2c-0.9,2.7,1.2,5.4,1.5,8.2c0.7,7.8,1.5,15.5,2.3,23.3c0.4,3.4-4.1,9.2,0.7,9.2c0.5,0,5.6-1.1,6.1-1.3
		c8.7-2,16.5-5.7,24.5-9.5c2.5-1.2,4.9-2.3,7.3-3.6c19.1-10.2,34.7-26.9,45.2-45.7c3.1-5.6,5.8-11.6,7.6-17.8
		C1075.1,391.4,1075.9,383.3,1075.4,375.4z"/>
	<path id="XMLID_50_" class="st2" d="M943.3,197.3c7.9-9.6,18-17.4,29.4-22.5c1.6-0.7,4.4-1.8,6.9-2.7c1-0.4,1.9-0.7,2.7-1
		c0.3-0.9,0.6-1.8,0.9-2.6c2.1-5.8,4.3-11.5,6.5-17.1c0.4-1.1,0.9-2.2,1.3-3.2c0.8-2,1.6-3.9,2.4-5.8c2.6-6,5.2-11.7,7.8-17.2
		c1.3-2.6,2.5-5.2,3.7-7.7c1.3-2.6,2.6-5.1,3.8-7.5c6.1-11.7,11.3-20.6,14.5-25.1c2.9-4.2,3.7-9.2,2.2-13.9
		c-1.6-4.8-5.5-8.9-10.8-11.1c-22.4-9.5-37.7-14-64-14c-4.3,0-8.7,0.1-13,0.4c-7.6,0.5-13.7,1.2-17.4,1.8c-8.5,1.3-15,6.8-16.7,14.1
		c-1.9,8.2-3.6,17.1-5.3,26.5c-0.5,2.8-1,5.7-1.4,8.6c-0.5,2.8-0.9,5.7-1.3,8.6c-1,6.5-1.9,13.3-2.8,20.4c-0.3,2.2-0.5,4.4-0.8,6.6
		c-0.3,2.2-0.5,4.4-0.8,6.6c-0.8,7-1.5,14.3-2.3,21.8c0,0.2,0,0.3,0,0.5c-1.3,13.7-2.5,28.2-3.5,43.6c-1.6,22.7,0.1,160.2,0.1,160.2
		l-35.9-101.1c-3.7-5.1-10-8.2-17-8.2c-0.5,0-1,0-1.4,0c-5.6,0.3-10.9,2.7-14.4,6.4c-3.2,3.4-4.7,7.7-4.2,12.2l0,0.3l-0.4,153.9
		c-0.2-0.5-5.4-17.1-13.5-46.1c-7.9-28.1-18.5-67.8-29.8-115.5c-2.7-11.2-5.4-22.9-8.1-34.9c-0.7-3.2-1.4-6.4-2.1-9.6
		c-0.7-3.1-1.4-6.2-2.1-9.3c-2-9.1-4-18.5-6-28c-0.8-3.6-1.5-7.3-2.3-11c-0.7-3.6-1.5-7.1-2.2-10.7c-3.9-19.2-7.6-39-11.3-59.4
		c-0.1-0.5-0.6-0.8-0.9-1c-0.6-0.3-1.6-0.5-2.6,0c-15.9,8-55.2,30.4-75.9,65.9c-5.5,9.4-6.7,20.2-3.4,30.5
		c7.6,23.7,24.5,71.9,44.3,125.4c6.6,17.7,13.4,36,20.4,54.1c1.5,3.9,3,7.7,4.5,11.6c7.2,18.6,14.5,36.9,21.7,54.1
		c17.3,41.9,33.5,77.5,45.2,96c12.8,3.1,42.3,8,55.6,1.5c-3.5-65.2-6.7-130.3-5-195.6c-0.1,4.1,4.4,11.7,5.8,15.6
		c2.6,7.1,5.2,14.2,7.8,21.3c5.3,14.3,10.5,28.6,16.4,42.6c1.1,2.6,2.2,5.3,3.3,7.9c7.1,17.1,14.1,33.9,19.9,47.7
		c1,2.4,1.9,4.6,2.9,6.8c1,2.4,1.9,4.6,2.8,6.8c3.2,7.7,5.8,13.7,7.3,17.4c0.6,1.4,1.1,2.5,1.4,3.2c0.9,2.2,2.5,4,4.6,5.4
		c2,1.4,4.5,2.3,7.1,2.6c2.1,0.2,4.3,0.3,6.5,0.2c5.7-0.3,11.9-2,18.4-4.9c6.6-3,13.7-7.2,21-12.8c0.6-0.4,1.2-0.9,1.7-1.3
		c1-0.8,1.9-1.6,2.7-2.4c4.4-4.6,6.8-10.5,6.7-16.5c0-0.7-0.1-1.3-0.1-2c-0.2-1.6-0.4-3.1-0.5-4.6c-0.3-2.2-0.5-4.4-0.8-6.6
		c-3.3-29.5-5.6-59.2-6.2-88.9c-0.2-8-0.2-16.1-0.2-24l-0.3-14.8c-10.5-10.6-19.2-21.7-26-33.2c0,0-15.8-28.6-15.8-61.9
		C925.2,223.5,943.3,197.3,943.3,197.3z"/>
</g>
<path id="XMLID_47_" class="st0" d="M1006,75.1c-14.3-9.1-33.1-13-49.4-14.2c-8.5-0.6-37.7-1.7-40,9.5
	c-10.8,52.9-16.3,106.8-18.9,160.7c-2.6,53.1-3.8,106.1,0.9,159.1c0.8,9.6,1.8,19.1,3,28.5c0.2,1.8-2.3,2.5-3,0.8l-61.3-148.2
	c-1.5-3.6-5.6-5.3-9.1-3.8c-2.8,1.2-6.4,4.9-6.3,7.7c-0.1,0.3-0.2,0.6-0.2,1l3,220.5c0,2.5-3.5,3.1-4.3,0.7
	C810,465.1,785,387,782.3,377.4c-9.1-32-17.8-63.9-25.3-96.3c-5.9-25.7-11.6-51.5-17.4-77.2c-0.9-4.1-1.8-8-2.7-11.8
	c-0.9-3.9-1.7-7.7-2.5-11.4c-4.2-19.3-7.4-34.1-9.2-42.5c-0.2-1.1-0.8-2.1-1.7-2.9c-1.7-1.4-4.1-1.5-5.9-0.3
	c-11.6,7.7-20.6,15-27.6,21.7c-20.1,19.1-24.1,33.1-24.8,36.4c-0.1,0.7-0.1,1.3,0,2c4.5,22.8,16,57.8,30.3,96.7
	c2.6,7.1,5.3,14.3,8.1,21.6c3.7,9.8,7.5,19.6,11.4,29.6c11.5,29.3,23.6,58.9,34.7,85.5c4.2,10,8.2,19.6,12.1,28.6
	c3.1,7.3,6,14.1,8.8,20.6c10.7,25,18.7,43.2,21.5,49.4c0.5,1.2,1.6,2.2,2.8,2.6c5.7,2.1,12.1,3.4,18,4.2c6,0.8,11.5,1.1,15.1,1.1
	c0.6,0,1.2,0,1.7,0c1.6,0,3.1-0.7,4.1-2c0.6-0.8,0.9-1.8,0.9-2.7c0.1-0.3,0.2-0.6,0.2-0.9l-5-221.6c0-2.2,3-2.9,3.9-0.8l84.1,195.9
	c0.8,1.9,2.3,3.2,4.1,3.9c0,0,0,0,0.1,0c0,0,0,0,0.1,0c0.7,0.2,1.5,0.4,2.3,0.4c0.9,0,1.8-0.2,2.7-0.5c0.4-0.2,0.8-0.4,1.2-0.6
	c2.8-0.9,5.6-2.2,7-2.8c8.7-3.7,23.3-12.6,22.1-23.6c0-0.1,0-0.2,0-0.2c-5.4-50-7.2-101.8-5.6-152.1c0,0-6-8.3-8.5-12.5
	c-3.6-6-6.8-11.9-9.5-18.4c-5.2-12.9-8.4-26.6-8.6-40.5c-0.5-29.3,13.2-58.6,38-74.9c3-2,8.6-3.6,10.8-6.3c2.5-3.2,3.1-11,4.2-15
	c7.5-25.3,16.9-51.5,31.1-74c0.4-0.6,0.7-1.2,0.8-1.8C1011,80.1,1008.9,77,1006,75.1z"/>
<path id="XMLID_35_" class="st3" d="M1116.2,222.8c-11.1-26.3-27.1-50-47.4-70.3c-15.6-15.6-33.1-28.6-52.3-38.8
	c5.8-11.3,10.8-19.8,13.8-24c4.6-6.6,5.9-14.6,3.4-22.1c-2.4-7.3-8.2-13.4-15.9-16.6c-23.1-9.8-39.8-14.7-67.6-14.7
	c-4.5,0-9.1,0.1-13.6,0.4c-8,0.5-14.3,1.3-18.3,1.9C906,40.5,896.5,48.8,894,59.7c-2.1,9.1-4,18.8-5.8,29.3
	c-49.7,5.2-95.3,26.5-130.3,61.2c-1.6,1.6-3.2,3.2-4.7,4.8c-3.4-17-6.7-34.5-9.9-52.4c-0.6-3.2-2.7-6-5.8-7.6
	c-3.4-1.7-7.4-1.7-10.8,0c-16.6,8.4-57.7,31.9-79.7,69.4c-6.8,11.7-8.3,25.2-4.2,37.9c19.9,61.6,102.8,290.9,139.1,346.4l0,0
	c0,0,21,5.9,39,5.9c21.2,0,31.2-7.1,31.3-7.2c0,0-0.9-26.6-0.9-26.6c0,0,0,0,0,0c17.9,5.4,36.4,8.4,55.3,8.9
	c2.9,1.7,6.3,2.9,9.9,3.3c2.6,0.3,5.4,0.4,8.2,0.2c7.2-0.4,14.8-2.5,22.7-6.2c17.5-2.8,34.6-7.7,51-14.6
	c26.3-11.1,50-27.1,70.3-47.4c20.3-20.3,36.2-43.9,47.4-70.3c11.5-27.3,17.4-56.2,17.4-86.1C1133.6,279,1127.7,250.1,1116.2,222.8z
	 M878.9,163.4c-22.1,6.4-46.6,17.8-65,36.1c-14.9,14.8-29.9,32.3-39.6,52.7c-2.4-10.3-4.8-20.9-7.2-31.9
	c7.1-11.6,15.6-22.4,25.4-32.2c24.6-24.6,55.3-40.9,88.7-47.4C880.4,147.9,879.6,155.5,878.9,163.4
	C878.9,163.4,878.9,163.3,878.9,163.4L878.9,163.4C878.9,163.4,878.9,163.4,878.9,163.4z M885.5,106.4c-1,6.7-1.9,13.6-2.8,20.8
	c-37.5,6.5-72,24.3-99.4,51.7c-7.4,7.4-14.2,15.4-20.1,23.8c-1.9-8.8-3.8-17.7-5.7-26.8C788.7,138.4,833.7,113,885.5,106.4z
	 M846.2,422.1c4.4,2.5,8.9,4.8,13.5,6.9c7.5,17.9,15,35.8,21.3,51c-11.1-2.2-21.9-5.4-32.2-9.7L846.2,422.1z M850.5,502.8l-1-18.4
	c12,4.5,24.5,7.7,37.4,9.7c3.1,7.3,5.7,13.5,7.6,18C879.2,510.7,864.5,507.6,850.5,502.8z M968,502.8c-0.8,0.9-1.7,1.7-2.7,2.4
	c-0.6,0.5-1.2,0.9-1.7,1.3c-7.3,5.6-14.3,9.9-21,12.8c-6.5,2.9-12.6,4.5-18.4,4.9c-2.2,0.1-4.4,0.1-6.5-0.2
	c-2.7-0.3-5.1-1.2-7.1-2.6c-2-1.4-3.6-3.2-4.6-5.4c-0.3-0.7-0.8-1.8-1.4-3.2c-1.6-3.7-4.1-9.8-7.3-17.4c-0.9-2.1-1.8-4.4-2.8-6.8
	c-0.9-2.2-1.9-4.5-2.9-6.8c-4.8-11.4-38.8-104.6-50.9-137.6c-2.3-6.4-4.2-6-4.2,0.7c0,63.8,3.5,134.5,6.9,197.5
	c0,0-18.6,10.1-54.9-1.5c-0.4-0.3-0.8-0.6-1.2-0.9c-11.7-18.6-27.7-53.9-44.8-95.2c-7.1-17.2-14.4-35.5-21.7-54.1
	c-0.4-1-0.9-2-1.3-3.1c-1.1-2.8-2.2-5.6-3.2-8.5c-7-18.1-13.9-36.4-20.4-54.1c-19.8-53.5-36.6-101.8-44.3-125.4
	c-3.3-10.2-2.1-21.1,3.4-30.5c20.7-35.4,60-57.9,75.9-65.9c0.9-0.5,1.9-0.3,2.6,0c0.2,0.1,0.8,0.4,0.9,1
	c3.6,20.3,7.4,40.2,11.3,59.4c0.7,3.6,1.4,7.2,2.2,10.7c0.8,3.7,1.5,7.4,2.3,11c2,9.5,4,18.9,6,28c0.7,3.1,1.4,6.2,2.1,9.3
	c0.7,3.2,1.4,6.4,2.1,9.6c2.7,12.1,5.4,23.7,8.1,34.9c11.3,47.7,21.9,87.4,29.8,115.5c8.1,28.9,13.3,45.6,13.5,46.1l0.3,1
	c0.7,2.4,4.3,1.9,4.3-0.7c-0.9-39.1-3.2-136.7-4.1-152.4c0-0.6-0.1-1.2-0.1-1.8l0-0.3c-0.5-4.4,1-8.7,4.2-12.2
	c3.5-3.8,8.7-6.1,14.4-6.4c0.5,0,0.9,0,1.4,0c7,0,12,5.4,14.1,11.4l38.8,97.8c0.3,1.1,1.9,0.8,1.9-0.3c0.1-27.8-3.5-140.1-2.1-159.9
	c1-15.2,2.2-29.6,3.5-43.1l0.2-1.7c0.7-7.3,1.4-14.3,2.2-21.1c0.3-2.2,0.5-4.4,0.8-6.6c0.3-2.2,0.5-4.4,0.8-6.6
	c0.9-7.1,1.8-13.9,2.8-20.4c0.4-2.9,0.9-5.8,1.3-8.6c0.5-2.9,1-5.8,1.4-8.6c1.6-9.4,3.4-18.2,5.3-26.5c1.6-7.2,8.2-12.8,16.7-14.1
	c3.7-0.6,9.8-1.4,17.4-1.8c4.3-0.3,8.7-0.4,13-0.4c26.3,0,41.6,4.5,64,14c5.3,2.2,9.2,6.3,10.8,11.1c1.5,4.7,0.8,9.7-2.2,13.9
	c-3.2,4.5-8.4,13.4-14.5,25.1c-1.2,2.4-2.5,4.9-3.8,7.5c-1.2,2.5-2.5,5-3.7,7.7c-2.6,5.4-5.2,11.2-7.8,17.2
	c-0.8,1.9-1.6,3.8-2.4,5.8c-0.4,1.1-0.9,2.2-1.3,3.2c-2.3,5.6-4.5,11.3-6.5,17.1c-0.2,0.5-0.8,2.1-1,2.6l-1,0.4
	c-0.5,0.2-1.1,0.4-1.7,0.6c-2.5,0.9-5.3,2-6.9,2.7c-11.3,5.2-21.4,12.9-29.4,22.5c-5.1,6.3-9.3,13.5-12.5,21.4
	c-0.5,1.1-0.9,2.3-1.3,3.5c-6.2,17.4-7.1,37.3-2.5,56.7c1,3.9,2.2,7.8,3.6,11.6c2.7,7.4,6.2,14.8,10.5,21.9
	c6.7,11.2,15.1,22.1,25.4,32.6c0.2,0.5,0.4,1,0.6,1.5l0.3,14c-0.1,7.9,0,16,0.2,24c0.2,10.5,0.7,21.1,1.3,32.1
	c0.4,6.2,0.8,12.4,1.3,18.8c0.1,1.8,0.3,3.6,0.4,5.4c0.9,10.6,1.9,21.5,3.2,32.7c0.2,2.2,0.5,4.4,0.8,6.6c0.2,1.5,0.4,3.1,0.5,4.6
	c0.1,0.7,0.1,1.3,0.1,2C974.9,492.3,972.5,498.2,968,502.8z M1095,381.5c-0.6,13.1-4.1,25.4-10.1,36.7c-1.5,2.9-3.2,5.8-5.1,8.6
	c-7,10.6-14.6,19.5-24.4,28.2c-1.5,1.3-3,2.6-4.5,3.9c-2.8,2.4-5.9,4.7-9.1,7.1c-0.6,0.5-1.2,0.9-1.9,1.4
	c-25.6,18.7-47.8,25.3-57.1,27.5c1-3.8,1.3-7.7,0.8-11.7c0-0.1,0-0.2,0-0.2c-2.5-20.8-4.5-41.7-5.9-62.6c0-0.7-0.2-2.8-0.2-2.8
	s1.9-0.4,2.7-0.7c8.1-2.8,14.9-8.9,18.6-16.6c4.9-10.3,3.1-21.1-1.2-31.2c-11.8-27.6-31.3-40.7-43.1-53.5c-7.5-8.2-12.4-19-16-28.6
	c-6-16.4-7.7-33.3-5-48.8c0.8-4.6,2-9,3.5-13.2c4.5-12.4,11.9-23.1,21.7-31.4c5.3-4.2,10.2-7.4,14.6-9.4c5.6-2.9,11.7-5,18.2-6.1
	c2.1-0.3,5.1-0.3,7.9-0.3c1,0,1.3-1.3,0.4-1.7c-3-1.5-6.5-3-8.9-4.3c2.1-5.9,4.3-11.7,6.6-17.3c12.9,5.9,24.7,13.1,35.1,21.7
	c2,1.4,3.9,2.8,5.7,4.2c2.6,2.1,4.9,4.1,6.6,5.6c0.1,0,0.1,0.1,0.2,0.1c0.5,0.4,1.1,0.8,1.6,1.4c5.2,4.8,12,14.7,15.5,19.6
	c1.9,2.6,3.4,5.4,4.5,8.2c0.6,1.4,1.1,2.8,1.5,4.3c1.5,5.4,1.8,11.2,0.9,17.1c-1.2,8.6-5,15.9-10.5,21.3c-6.2,6-14.6,9.5-24.4,9.7
	c-0.2,0-0.4,0-0.6,0c-10.4,0-19.5-3.9-26.6-11.8c-1-1.1-1.8-2.4-2.5-3.6c-2-3.5-1.5-6.1,1.5-8.7c2.8-2.4,5.5-4.8,7.7-7.7
	c6.8-9,6.9-17.8,0.3-26.9c-5.6-7.8-13.2-12.9-22.6-15c-1.1-0.2-2.2-0.4-3.3-0.4c-7.9,0-14.5,6.4-14.5,14.8
	c-0.1,8.5,2.9,16.2,6.8,23.5c6.5,12.2,15.6,22.4,25.7,31.7c17.7,16.1,26.8,23.4,46.1,37.4c4.9,3.6,9.5,7.5,14.2,11.3
	c0.3,0.3,0.7,0.5,1,0.8c9.9,8.5,16,19.5,21.1,31.3c0.5,1.3,1,2.6,1.5,3.8c1.4,3.7,2.4,7.5,3.2,11.3l0.5,0.6l-0.1,0.5
	c0,0.1,0,0.1-0.1,0.2C1094.9,367.6,1095.3,374.5,1095,381.5z M1102.6,383.4c0-0.5,0.1-1,0.1-1.5c0.7-14.3-1.7-27.9-7-40.4
	c-0.9-2.2-2-4.5-3.1-6.9c-4.6-9.5-11.2-20.1-21.5-28.5c-0.7-0.6-1.4-1.1-2.1-1.7c-0.4-0.4-0.9-0.8-1.4-1.2
	c-3.4-2.8-6.9-5.7-10.6-8.4c-10.7-7.8-18.2-13.4-25.6-19.5c0.8,0,1.6,0.1,2.5,0.1c0.2,0,0.5,0,0.7,0c10.4-0.2,19.7-3.5,26.9-9.4
	c8.2-6.6,13.8-16.4,15.5-28.1c0.2-1.1,0.3-2.3,0.4-3.4c1-11.6-1.9-22.3-8.7-31.7c-1.8-2.6-3.8-5.3-5.9-7.9
	c-3.1-4.3-6.5-8.5-10.6-12.6c-14.5-14.5-31.9-26.8-50.8-36.3c2.5-5.9,5.1-11.6,7.6-16.9c64.1,34.4,107.7,102.1,107.7,179.9
	C1116.6,335.2,1111.7,360.3,1102.6,383.4z"/>
<path id="XMLID_34_" class="st0" d="M1026,191.2c-0.8-1.8,1.4-3.5,2.9-2.2c9.5,7.6,26.5,23.7,28.5,41.8c2.6,23-21.3,30.9-34.3,23.3
	c-1.9-1.1-2.5-3.7-1.1-5.4C1027.4,241.7,1039.2,221.7,1026,191.2z"/>
<path id="XMLID_33_" class="st2" d="M942.8,197"/>
<path id="XMLID_32_" class="st2" d="M942.8,197"/>
<path id="XMLID_31_" class="st2" d="M940.5,312.1"/>
</svg>
